HIERARCHY
ROOT joint_Root
{
	OFFSET 0.0 0.0 0.0
	CHANNELS 6 Xposition Yposition Zposition Zrotation Xrotation Yrotation 
	JOINT Hips
	{
		OFFSET -0.726466 93.3139 -2.00062
		CHANNELS 6 Xposition Yposition Zposition Zrotation Xrotation Yrotation 
		JOINT Spine
		{
			OFFSET 15.7357 0.0 0.0
			CHANNELS 6 Xposition Yposition Zposition Zrotation Xrotation Yrotation 
			JOINT Chest
			{
				OFFSET 8.98455 -0.406207 0.0
				CHANNELS 6 Xposition Yposition Zposition Zrotation Xrotation Yrotation 
				JOINT Neck
				{
					OFFSET 16.3773 0.0 0.0
					CHANNELS 6 Xposition Yposition Zposition Zrotation Xrotation Yrotation 
					JOINT Head
					{
						OFFSET 6.45672 0.0 0.0
						CHANNELS 6 Xposition Yposition Zposition Zrotation Xrotation Yrotation 
						End Site
						{
							OFFSET 0.0 0.0 0.0
						}
					}
				}
				JOINT Shoulder_L
				{
					OFFSET 12.9942 -0.242716 4.98039
					CHANNELS 6 Xposition Yposition Zposition Zrotation Xrotation Yrotation 
					JOINT UpperArm_L
					{
						OFFSET 5.34809 0.0 0.0
						CHANNELS 6 Xposition Yposition Zposition Zrotation Xrotation Yrotation 
						JOINT LowerArm_L
						{
							OFFSET 24.3286 1.87007e-05 0.0
							CHANNELS 6 Xposition Yposition Zposition Zrotation Xrotation Yrotation 
							JOINT Hand_L
							{
								OFFSET 22.2916 0.0 0.0
								CHANNELS 6 Xposition Yposition Zposition Zrotation Xrotation Yrotation 
								End Site
								{
									OFFSET 0.0 0.0 0.0
								}
							}
						}
					}
				}
				JOINT Shoulder_R
				{
					OFFSET 12.9945 -0.242716 -4.98039
					CHANNELS 6 Xposition Yposition Zposition Zrotation Xrotation Yrotation 
					JOINT UpperArm_R
					{
						OFFSET -5.34813 0.0 0.0
						CHANNELS 6 Xposition Yposition Zposition Zrotation Xrotation Yrotation 
						JOINT LowerArm_R
						{
							OFFSET -24.3289 0.000322201 0.0
							CHANNELS 6 Xposition Yposition Zposition Zrotation Xrotation Yrotation 
							JOINT Hand_R
							{
								OFFSET -22.2915 -0.000108084 0.0
								CHANNELS 6 Xposition Yposition Zposition Zrotation Xrotation Yrotation 
								End Site
								{
									OFFSET 0.0 0.0 0.0
								}
							}
						}
					}
				}
			}
		}
		JOINT UpperLeg_L
		{
			OFFSET -2.19248 -6.46944 0.0
			CHANNELS 6 Xposition Yposition Zposition Zrotation Xrotation Yrotation 
			JOINT LowerLeg_L
			{
				OFFSET 39.0811 0.0 -1.23785e-05
				CHANNELS 6 Xposition Yposition Zposition Zrotation Xrotation Yrotation 
				JOINT Foot_L
				{
					OFFSET 40.9854 0.0 -1.26872e-05
					CHANNELS 6 Xposition Yposition Zposition Zrotation Xrotation Yrotation 
					JOINT Toes_L
					{
						OFFSET 11.7543 0.0 0.0
						CHANNELS 6 Xposition Yposition Zposition Zrotation Xrotation Yrotation 
						End Site
						{
							OFFSET 0.0 0.0 0.0
						}
					}
				}
			}
		}
		JOINT UpperLeg_R
		{
			OFFSET -2.19251 6.46944 0.0
			CHANNELS 6 Xposition Yposition Zposition Zrotation Xrotation Yrotation 
			JOINT LowerLeg_R
			{
				OFFSET -39.0811 -0.00228153 -0.0401928
				CHANNELS 6 Xposition Yposition Zposition Zrotation Xrotation Yrotation 
				JOINT Foot_R
				{
					OFFSET -40.9854 0.0 0.0
					CHANNELS 6 Xposition Yposition Zposition Zrotation Xrotation Yrotation 
					JOINT Toes_R
					{
						OFFSET -11.7543 0.0 0.0
						CHANNELS 6 Xposition Yposition Zposition Zrotation Xrotation Yrotation 
						End Site
						{
							OFFSET 0.0 0.0 0.0
						}
					}
				}
			}
		}
	}
}
MOTION
Frames:	4
Frame Time:	0.0333333
0.000000 0.000000 0.000000 0.000000 0.000000 -0.000000 110.547000 89.940900 181.174000 -75.219000 51.098100 173.552000 15.735700 0.000005 -0.000001 67.996200 81.393300 -65.905800 8.984550 -0.406207 -0.000000 8.353530 -6.409340 4.648690 16.377300 -0.000001 -0.000001 8.950310 11.267700 -3.268130 6.456720 -0.000001 -0.000000 1.347160 26.160800 -4.140730 12.994200 -0.242716 4.980390 -88.181500 -5.102220 -70.353100 5.348090 -0.000007 -0.000001 -54.465800 32.760000 -27.219700 24.328600 0.000019 0.000005 6.146310 3.205680 -62.557600 22.291600 -0.000001 0.000005 8.665010 5.587440 -10.618300 12.994500 -0.242716 -4.980390 88.009400 3.863040 -62.711600 -5.348130 -0.000001 -0.000004 -64.106100 31.367400 0.967643 -24.328900 0.000322 -0.000009 5.597830 9.245350 -31.390300 -22.291500 -0.000108 -0.000004 -0.482626 5.523440 -7.509590 -2.192480 -6.469440 -0.000000 179.094000 -5.263680 0.887092 39.081100 -0.000007 -0.000012 -0.283655 0.536632 27.860800 40.985400 -0.000006 -0.000013 9.701720 -6.840070 -74.451000 11.754300 -0.000000 0.000003 -0.000012 -0.000163 -16.583900 -2.192510 6.469440 -0.000001 178.338000 0.701994 161.856000 -39.081100 -0.002282 -0.040193 -0.005687 0.013284 34.059800 -40.985400 0.000008 0.000006 -0.041829 -7.788590 -54.571600 -11.754300 -0.000006 -0.000006 -0.021118 -0.173406 -23.660000
0.000000 0.000000 0.000000 0.000000 0.000000 -0.000000 112.486000 89.804100 179.839000 -76.620100 48.065400 174.117000 15.735700 0.000005 -0.000001 66.280400 81.490000 -64.185700 8.984550 -0.406207 -0.000000 7.987240 -6.813720 4.665480 16.377300 -0.000001 -0.000001 8.608870 10.873400 -2.861880 6.456720 -0.000001 -0.000000 1.202430 25.935500 -4.157030 12.994200 -0.242716 4.980390 -88.209500 -5.094300 -70.605500 5.348090 -0.000007 -0.000001 -52.109900 33.155700 -29.666400 24.328600 0.000019 0.000005 6.414730 3.219540 -63.456000 22.291600 -0.000001 0.000005 8.638280 5.585910 -10.533200 12.994500 -0.242716 -4.980390 88.019100 3.765980 -62.229200 -5.348130 -0.000001 -0.000004 -63.585300 30.334800 1.401650 -24.328900 0.000322 -0.000009 5.546520 9.086940 -31.591300 -22.291500 -0.000108 -0.000004 -0.243580 5.522840 -7.483450 -2.192480 -6.469440 -0.000000 179.002000 -3.041560 2.679590 39.081100 -0.000007 -0.000012 -0.285502 0.575030 26.404900 40.985400 -0.000006 -0.000013 9.703800 -5.734320 -75.356600 11.754300 -0.000000 0.000003 -0.000012 -0.000162 -16.583900 -2.192510 6.469440 -0.000001 178.732000 1.882700 160.767000 -39.081100 -0.002282 -0.040193 -0.003826 0.015400 24.869900 -40.985400 0.000008 0.000006 -1.057930 -4.982350 -56.131800 -11.754300 -0.000006 -0.000006 -0.021177 -0.173724 -23.673100
0.000000 0.000000 0.000000 0.000000 0.000000 -0.000000 114.519000 89.526100 178.411000 -77.908400 45.612400 174.716000 15.735700 0.000005 -0.000001 65.962600 81.565700 -63.911200 8.984550 -0.406207 -0.000000 7.808100 -6.842690 4.569920 16.377300 -0.000001 -0.000001 8.335670 10.573700 -2.566220 6.456720 -0.000001 -0.000000 0.959544 25.623100 -4.203910 12.994200 -0.242716 4.980390 -88.302200 -4.887920 -70.818100 5.348090 -0.000007 -0.000001 -50.073900 33.376100 -31.524600 24.328600 0.000019 0.000005 6.859600 3.375260 -63.922000 22.291600 -0.000001 0.000005 8.449730 5.584960 -10.481200 12.994500 -0.242716 -4.980390 88.064800 3.649460 -62.039300 -5.348130 -0.000001 -0.000004 -63.109100 29.020900 1.490650 -24.328900 0.000322 -0.000009 5.381150 8.756880 -31.751400 -22.291500 -0.000108 -0.000004 -0.027746 5.521650 -7.432540 -2.192480 -6.469440 -0.000000 178.964000 -1.981320 4.744530 39.081100 -0.000007 -0.000012 -0.227344 0.487649 24.995500 40.985400 -0.000006 -0.000013 10.605900 -4.421190 -76.515000 11.754300 -0.000000 0.000003 -0.326881 -0.397052 -16.325600 -2.192510 6.469440 -0.000001 -179.472000 7.318680 159.777000 -39.081100 -0.002282 -0.040193 -0.013506 0.057065 16.436000 -40.985400 0.000008 0.000006 -4.795000 1.225540 -56.898200 -11.754300 -0.000006 -0.000006 -0.022485 -0.180681 -23.960000
0.000000 0.000000 0.000000 0.000000 0.000000 -0.000000 116.735000 89.043900 176.825000 -79.564300 43.415400 175.628000 15.735700 0.000005 -0.000001 65.775300 81.602300 -63.920400 8.984550 -0.406207 -0.000000 7.706530 -6.865180 4.172450 16.377300 -0.000001 -0.000001 8.007930 10.388300 -2.401650 6.456720 -0.000001 -0.000000 0.704170 25.330400 -4.136140 12.994200 -0.242716 4.980390 -88.380100 -4.670960 -70.848800 5.348090 -0.000007 -0.000001 -48.698300 33.468000 -32.519100 24.328600 0.000019 0.000005 7.665860 3.769610 -63.966900 22.291600 -0.000001 0.000005 8.274010 5.584620 -10.462900 12.994500 -0.242716 -4.980390 88.057300 3.672010 -62.093500 -5.348130 -0.000001 -0.000004 -62.414900 28.425500 1.171010 -24.328900 0.000322 -0.000009 4.922160 7.970580 -31.848600 -22.291500 -0.000108 -0.000004 0.231351 5.519400 -7.336200 -2.192480 -6.469440 -0.000000 178.628000 -1.975840 7.241700 39.081100 -0.000007 -0.000012 -0.048061 0.111038 23.404500 40.985400 -0.000006 -0.000013 13.640000 -3.098330 -78.045600 11.754300 -0.000000 0.000003 -0.000256 -0.004203 -16.748200 -2.192510 6.469440 -0.000001 -177.493000 12.973100 158.723000 -39.081100 -0.002282 -0.040193 -0.020592 0.140922 9.637980 -40.985400 0.000008 0.000006 -12.779600 7.886330 -55.967200 -11.754300 -0.000006 -0.000006 -0.022992 -0.183330 -24.069400
